<?xml version="1.0" encoding="UTF-8" standalone="no"?>
<!DOCTYPE svg PUBLIC "-//W3C//DTD SVG 1.1//EN"
 "http://www.w3.org/Graphics/SVG/1.1/DTD/svg11.dtd">
<!-- Generated by graphviz version 2.38.0 (20140413.2041)
 -->
<!-- Title: %3 Pages: 1 -->
<svg width="1539pt" height="344pt"
 viewBox="0.00 0.00 1538.75 344.00" xmlns="http://www.w3.org/2000/svg" xmlns:xlink="http://www.w3.org/1999/xlink">
<g id="graph0" class="graph" transform="scale(1 1) rotate(0) translate(4 340)">
<title>%3</title>
<polygon fill="white" stroke="none" points="-4,4 -4,-340 1534.75,-340 1534.75,4 -4,4"/>
<!-- split0 -->
<g id="node1" class="node"><title>split0</title>
<polygon fill="none" stroke="black" points="168,-143 0,-143 0,-107 168,-107 168,-143"/>
<text text-anchor="start" x="8" y="-122.3" font-family="Times New Roman,serif" font-weight="bold" font-size="14.00">sqft_living15</text>
<text text-anchor="start" x="87" y="-122.3" font-family="Times New Roman,serif" font-size="14.00"> ≤ </text>
<text text-anchor="start" x="103" y="-122.3" font-family="Times New Roman,serif" font-weight="bold" font-size="14.00">2004.500</text>
</g>
<!-- split1 -->
<g id="node2" class="node"><title>split1</title>
<polygon fill="none" stroke="black" points="370.5,-194 215.5,-194 215.5,-158 370.5,-158 370.5,-194"/>
<text text-anchor="start" x="223.5" y="-173.3" font-family="Times New Roman,serif" font-weight="bold" font-size="14.00">sqft_living_rat</text>
<text text-anchor="start" x="312.5" y="-173.3" font-family="Times New Roman,serif" font-size="14.00"> ≤ </text>
<text text-anchor="start" x="328.5" y="-173.3" font-family="Times New Roman,serif" font-weight="bold" font-size="14.00">0.281</text>
</g>
<!-- split0&#45;&gt;split1 -->
<g id="edge19" class="edge"><title>split0&#45;&gt;split1</title>
<path fill="none" stroke="black" d="M158.272,-143.052C174.702,-147.101 192.247,-151.423 209.04,-155.561"/>
<polygon fill="black" stroke="black" points="208.28,-158.978 218.827,-157.972 209.954,-152.181 208.28,-158.978"/>
<text text-anchor="middle" x="188.5" y="-155.8" font-family="Times New Roman,serif" font-size="14.00">yes</text>
</g>
<!-- split2 -->
<g id="node21" class="node"><title>split2</title>
<polygon fill="none" stroke="black" points="377,-96 209,-96 209,-60 377,-60 377,-96"/>
<text text-anchor="start" x="217" y="-75.3" font-family="Times New Roman,serif" font-weight="bold" font-size="14.00">sqft_living15</text>
<text text-anchor="start" x="296" y="-75.3" font-family="Times New Roman,serif" font-size="14.00"> ≤ </text>
<text text-anchor="start" x="312" y="-75.3" font-family="Times New Roman,serif" font-weight="bold" font-size="14.00">2592.000</text>
</g>
<!-- split0&#45;&gt;split2 -->
<g id="edge30" class="edge"><title>split0&#45;&gt;split2</title>
<path fill="none" stroke="black" d="M164.44,-106.963C176.855,-104.144 189.759,-101.214 202.382,-98.348"/>
<polygon fill="black" stroke="black" points="203.454,-101.694 212.431,-96.0664 201.904,-94.8675 203.454,-101.694"/>
<text text-anchor="middle" x="188.5" y="-105.8" font-family="Times New Roman,serif" font-size="14.00">no</text>
</g>
<!-- split4 -->
<g id="node3" class="node"><title>split4</title>
<polygon fill="none" stroke="black" points="629,-256 473,-256 473,-220 629,-220 629,-256"/>
<text text-anchor="start" x="481" y="-235.3" font-family="Times New Roman,serif" font-weight="bold" font-size="14.00">sqft_above</text>
<text text-anchor="start" x="548" y="-235.3" font-family="Times New Roman,serif" font-size="14.00"> ≤ </text>
<text text-anchor="start" x="564" y="-235.3" font-family="Times New Roman,serif" font-weight="bold" font-size="14.00">2161.500</text>
</g>
<!-- split1&#45;&gt;split4 -->
<g id="edge7" class="edge"><title>split1&#45;&gt;split4</title>
<path fill="none" stroke="black" d="M368.39,-194.016C398.761,-201.372 434.048,-209.918 465.396,-217.51"/>
<polygon fill="black" stroke="black" points="464.882,-220.987 475.425,-219.939 466.53,-214.183 464.882,-220.987"/>
<text text-anchor="middle" x="397.5" y="-206.8" font-family="Times New Roman,serif" font-size="14.00">yes</text>
</g>
<!-- split3 -->
<g id="node10" class="node"><title>split3</title>
<polygon fill="none" stroke="black" points="627,-194 475,-194 475,-158 627,-158 627,-194"/>
<text text-anchor="start" x="483" y="-173.3" font-family="Times New Roman,serif" font-weight="bold" font-size="14.00">yr_built_ago</text>
<text text-anchor="start" x="561" y="-173.3" font-family="Times New Roman,serif" font-size="14.00"> ≤ </text>
<text text-anchor="start" x="577" y="-173.3" font-family="Times New Roman,serif" font-weight="bold" font-size="14.00">61.129</text>
</g>
<!-- split1&#45;&gt;split3 -->
<g id="edge18" class="edge"><title>split1&#45;&gt;split3</title>
<path fill="none" stroke="black" d="M370.808,-176C400.316,-176 434.169,-176 464.448,-176"/>
<polygon fill="black" stroke="black" points="464.568,-179.5 474.568,-176 464.568,-172.5 464.568,-179.5"/>
<text text-anchor="middle" x="397.5" y="-179.8" font-family="Times New Roman,serif" font-size="14.00">no</text>
</g>
<!-- split8 -->
<g id="node4" class="node"><title>split8</title>
<polygon fill="none" stroke="black" points="893,-296 725,-296 725,-260 893,-260 893,-296"/>
<text text-anchor="start" x="733" y="-275.3" font-family="Times New Roman,serif" font-weight="bold" font-size="14.00">sqft_living15</text>
<text text-anchor="start" x="812" y="-275.3" font-family="Times New Roman,serif" font-size="14.00"> ≤ </text>
<text text-anchor="start" x="828" y="-275.3" font-family="Times New Roman,serif" font-weight="bold" font-size="14.00">1662.000</text>
</g>
<!-- split4&#45;&gt;split8 -->
<g id="edge5" class="edge"><title>split4&#45;&gt;split8</title>
<path fill="none" stroke="black" d="M629.156,-250.056C656.035,-254.255 686.486,-259.013 714.544,-263.398"/>
<polygon fill="black" stroke="black" points="714.341,-266.908 724.762,-264.994 715.422,-259.992 714.341,-266.908"/>
<text text-anchor="middle" x="704.5" y="-265.8" font-family="Times New Roman,serif" font-size="14.00">yes</text>
</g>
<!-- leaf5 -->
<g id="node9" class="node"><title>leaf5</title>
<ellipse fill="none" stroke="black" cx="809" cy="-238" rx="81.4863" ry="18"/>
<text text-anchor="start" x="754.5" y="-235.3" font-family="Times New Roman,serif" font-size="14.00">leaf 5: </text>
<text text-anchor="start" x="791.5" y="-235.3" font-family="Times New Roman,serif" font-weight="bold" font-size="14.00">456550.000</text>
</g>
<!-- split4&#45;&gt;leaf5 -->
<g id="edge6" class="edge"><title>split4&#45;&gt;leaf5</title>
<path fill="none" stroke="black" d="M629.156,-238C656.943,-238 688.548,-238 717.379,-238"/>
<polygon fill="black" stroke="black" points="717.451,-241.5 727.451,-238 717.451,-234.5 717.451,-241.5"/>
<text text-anchor="middle" x="704.5" y="-241.8" font-family="Times New Roman,serif" font-size="14.00">no</text>
</g>
<!-- split12 -->
<g id="node5" class="node"><title>split12</title>
<polygon fill="none" stroke="black" points="1097.29,-336 942.292,-336 942.292,-300 1097.29,-300 1097.29,-336"/>
<text text-anchor="start" x="950.292" y="-315.3" font-family="Times New Roman,serif" font-weight="bold" font-size="14.00">sqft_living_rat</text>
<text text-anchor="start" x="1039.29" y="-315.3" font-family="Times New Roman,serif" font-size="14.00"> ≤ </text>
<text text-anchor="start" x="1055.29" y="-315.3" font-family="Times New Roman,serif" font-weight="bold" font-size="14.00">0.185</text>
</g>
<!-- split8&#45;&gt;split12 -->
<g id="edge3" class="edge"><title>split8&#45;&gt;split12</title>
<path fill="none" stroke="black" d="M893.12,-293.924C905.862,-296.365 919.046,-298.891 931.868,-301.347"/>
<polygon fill="black" stroke="black" points="931.578,-304.855 942.058,-303.299 932.895,-297.98 931.578,-304.855"/>
<text text-anchor="middle" x="913.5" y="-302.8" font-family="Times New Roman,serif" font-size="14.00">yes</text>
</g>
<!-- leaf9 -->
<g id="node8" class="node"><title>leaf9</title>
<ellipse fill="none" stroke="black" cx="1019.79" cy="-278" rx="81.4863" ry="18"/>
<text text-anchor="start" x="965.292" y="-275.3" font-family="Times New Roman,serif" font-size="14.00">leaf 9: </text>
<text text-anchor="start" x="1002.29" y="-275.3" font-family="Times New Roman,serif" font-weight="bold" font-size="14.00">440600.000</text>
</g>
<!-- split8&#45;&gt;leaf9 -->
<g id="edge4" class="edge"><title>split8&#45;&gt;leaf9</title>
<path fill="none" stroke="black" d="M893.12,-278C904.643,-278 916.526,-278 928.176,-278"/>
<polygon fill="black" stroke="black" points="928.34,-281.5 938.34,-278 928.34,-274.5 928.34,-281.5"/>
<text text-anchor="middle" x="913.5" y="-281.8" font-family="Times New Roman,serif" font-size="14.00">no</text>
</g>
<!-- leaf0 -->
<g id="node6" class="node"><title>leaf0</title>
<ellipse fill="none" stroke="black" cx="1232.38" cy="-318" rx="81.4863" ry="18"/>
<text text-anchor="start" x="1177.88" y="-315.3" font-family="Times New Roman,serif" font-size="14.00">leaf 0: </text>
<text text-anchor="start" x="1214.88" y="-315.3" font-family="Times New Roman,serif" font-weight="bold" font-size="14.00">431600.000</text>
</g>
<!-- split12&#45;&gt;leaf0 -->
<g id="edge1" class="edge"><title>split12&#45;&gt;leaf0</title>
<path fill="none" stroke="black" d="M1097.41,-318C1111.42,-318 1126.16,-318 1140.53,-318"/>
<polygon fill="black" stroke="black" points="1140.91,-321.5 1150.91,-318 1140.91,-314.5 1140.91,-321.5"/>
<text text-anchor="middle" x="1126.08" y="-321.8" font-family="Times New Roman,serif" font-size="14.00">yes</text>
</g>
<!-- leaf13 -->
<g id="node7" class="node"><title>leaf13</title>
<ellipse fill="none" stroke="black" cx="1232.38" cy="-278" rx="85.5853" ry="18"/>
<text text-anchor="start" x="1174.38" y="-275.3" font-family="Times New Roman,serif" font-size="14.00">leaf 13: </text>
<text text-anchor="start" x="1218.38" y="-275.3" font-family="Times New Roman,serif" font-weight="bold" font-size="14.00">437625.000</text>
</g>
<!-- split12&#45;&gt;leaf13 -->
<g id="edge2" class="edge"><title>split12&#45;&gt;leaf13</title>
<path fill="none" stroke="black" d="M1097.41,-303.446C1117.33,-299.662 1138.73,-295.597 1158.46,-291.851"/>
<polygon fill="black" stroke="black" points="1159.12,-295.287 1168.3,-289.982 1157.82,-288.41 1159.12,-295.287"/>
<text text-anchor="middle" x="1126.08" y="-302.8" font-family="Times New Roman,serif" font-size="14.00">no</text>
</g>
<!-- split6 -->
<g id="node11" class="node"><title>split6</title>
<polygon fill="none" stroke="black" points="887,-216 731,-216 731,-180 887,-180 887,-216"/>
<text text-anchor="start" x="739" y="-195.3" font-family="Times New Roman,serif" font-weight="bold" font-size="14.00">sqft_above</text>
<text text-anchor="start" x="806" y="-195.3" font-family="Times New Roman,serif" font-size="14.00"> ≤ </text>
<text text-anchor="start" x="822" y="-195.3" font-family="Times New Roman,serif" font-weight="bold" font-size="14.00">1992.500</text>
</g>
<!-- split3&#45;&gt;split6 -->
<g id="edge14" class="edge"><title>split3&#45;&gt;split6</title>
<path fill="none" stroke="black" d="M627.079,-182.452C656.373,-184.97 690.155,-187.873 720.539,-190.484"/>
<polygon fill="black" stroke="black" points="720.438,-193.988 730.701,-191.357 721.038,-187.014 720.438,-193.988"/>
<text text-anchor="middle" x="704.5" y="-192.8" font-family="Times New Roman,serif" font-size="14.00">yes</text>
</g>
<!-- split9 -->
<g id="node18" class="node"><title>split9</title>
<polygon fill="none" stroke="black" points="893,-176 725,-176 725,-140 893,-140 893,-176"/>
<text text-anchor="start" x="733" y="-155.3" font-family="Times New Roman,serif" font-weight="bold" font-size="14.00">sqft_living15</text>
<text text-anchor="start" x="812" y="-155.3" font-family="Times New Roman,serif" font-size="14.00"> ≤ </text>
<text text-anchor="start" x="828" y="-155.3" font-family="Times New Roman,serif" font-weight="bold" font-size="14.00">1412.500</text>
</g>
<!-- split3&#45;&gt;split9 -->
<g id="edge17" class="edge"><title>split3&#45;&gt;split9</title>
<path fill="none" stroke="black" d="M627.079,-170.721C654.53,-168.791 685.922,-166.584 714.766,-164.556"/>
<polygon fill="black" stroke="black" points="715.121,-168.039 724.851,-163.846 714.63,-161.057 715.121,-168.039"/>
<text text-anchor="middle" x="704.5" y="-168.8" font-family="Times New Roman,serif" font-size="14.00">no</text>
</g>
<!-- split10 -->
<g id="node12" class="node"><title>split10</title>
<polygon fill="none" stroke="black" points="1103.79,-256 935.792,-256 935.792,-220 1103.79,-220 1103.79,-256"/>
<text text-anchor="start" x="943.792" y="-235.3" font-family="Times New Roman,serif" font-weight="bold" font-size="14.00">sqft_living15</text>
<text text-anchor="start" x="1022.79" y="-235.3" font-family="Times New Roman,serif" font-size="14.00"> ≤ </text>
<text text-anchor="start" x="1038.79" y="-235.3" font-family="Times New Roman,serif" font-weight="bold" font-size="14.00">1422.500</text>
</g>
<!-- split6&#45;&gt;split10 -->
<g id="edge12" class="edge"><title>split6&#45;&gt;split10</title>
<path fill="none" stroke="black" d="M887.153,-212.781C899.743,-215.193 912.901,-217.714 925.822,-220.189"/>
<polygon fill="black" stroke="black" points="925.164,-223.626 935.644,-222.071 926.481,-216.751 925.164,-223.626"/>
<text text-anchor="middle" x="913.5" y="-222.8" font-family="Times New Roman,serif" font-size="14.00">yes</text>
</g>
<!-- leaf7 -->
<g id="node17" class="node"><title>leaf7</title>
<ellipse fill="none" stroke="black" cx="1019.79" cy="-198" rx="81.4863" ry="18"/>
<text text-anchor="start" x="965.292" y="-195.3" font-family="Times New Roman,serif" font-size="14.00">leaf 7: </text>
<text text-anchor="start" x="1002.29" y="-195.3" font-family="Times New Roman,serif" font-weight="bold" font-size="14.00">465745.250</text>
</g>
<!-- split6&#45;&gt;leaf7 -->
<g id="edge13" class="edge"><title>split6&#45;&gt;leaf7</title>
<path fill="none" stroke="black" d="M887.153,-198C900.483,-198 914.451,-198 928.1,-198"/>
<polygon fill="black" stroke="black" points="928.46,-201.5 938.46,-198 928.46,-194.5 928.46,-201.5"/>
<text text-anchor="middle" x="913.5" y="-201.8" font-family="Times New Roman,serif" font-size="14.00">no</text>
</g>
<!-- leaf2 -->
<g id="node13" class="node"><title>leaf2</title>
<ellipse fill="none" stroke="black" cx="1232.38" cy="-238" rx="81.4863" ry="18"/>
<text text-anchor="start" x="1177.88" y="-235.3" font-family="Times New Roman,serif" font-size="14.00">leaf 2: </text>
<text text-anchor="start" x="1214.88" y="-235.3" font-family="Times New Roman,serif" font-weight="bold" font-size="14.00">440600.000</text>
</g>
<!-- split10&#45;&gt;leaf2 -->
<g id="edge8" class="edge"><title>split10&#45;&gt;leaf2</title>
<path fill="none" stroke="black" d="M1104.02,-238C1116.06,-238 1128.49,-238 1140.67,-238"/>
<polygon fill="black" stroke="black" points="1140.82,-241.5 1150.82,-238 1140.82,-234.5 1140.82,-241.5"/>
<text text-anchor="middle" x="1126.08" y="-241.8" font-family="Times New Roman,serif" font-size="14.00">yes</text>
</g>
<!-- split11 -->
<g id="node14" class="node"><title>split11</title>
<polygon fill="none" stroke="black" points="1288.88,-216 1175.88,-216 1175.88,-180 1288.88,-180 1288.88,-216"/>
<text text-anchor="start" x="1183.88" y="-195.3" font-family="Times New Roman,serif" font-weight="bold" font-size="14.00">long</text>
<text text-anchor="start" x="1210.88" y="-195.3" font-family="Times New Roman,serif" font-size="14.00"> ≤ </text>
<text text-anchor="start" x="1226.88" y="-195.3" font-family="Times New Roman,serif" font-weight="bold" font-size="14.00">&#45;122.291</text>
</g>
<!-- split10&#45;&gt;split11 -->
<g id="edge11" class="edge"><title>split10&#45;&gt;split11</title>
<path fill="none" stroke="black" d="M1104.02,-222.191C1124.48,-218.304 1146.11,-214.197 1165.61,-210.491"/>
<polygon fill="black" stroke="black" points="1166.43,-213.898 1175.6,-208.594 1165.13,-207.021 1166.43,-213.898"/>
<text text-anchor="middle" x="1126.08" y="-222.8" font-family="Times New Roman,serif" font-size="14.00">no</text>
</g>
<!-- leaf11 -->
<g id="node15" class="node"><title>leaf11</title>
<ellipse fill="none" stroke="black" cx="1444.96" cy="-218" rx="85.5853" ry="18"/>
<text text-anchor="start" x="1386.96" y="-215.3" font-family="Times New Roman,serif" font-size="14.00">leaf 11: </text>
<text text-anchor="start" x="1430.96" y="-215.3" font-family="Times New Roman,serif" font-weight="bold" font-size="14.00">452097.500</text>
</g>
<!-- split11&#45;&gt;leaf11 -->
<g id="edge9" class="edge"><title>split11&#45;&gt;leaf11</title>
<path fill="none" stroke="black" d="M1288.98,-203.281C1309.68,-205.247 1333.7,-207.528 1356.57,-209.7"/>
<polygon fill="black" stroke="black" points="1356.34,-213.194 1366.63,-210.655 1357,-206.225 1356.34,-213.194"/>
<text text-anchor="middle" x="1338.67" y="-211.8" font-family="Times New Roman,serif" font-size="14.00">yes</text>
</g>
<!-- leaf12 -->
<g id="node16" class="node"><title>leaf12</title>
<ellipse fill="none" stroke="black" cx="1444.96" cy="-178" rx="85.5853" ry="18"/>
<text text-anchor="start" x="1386.96" y="-175.3" font-family="Times New Roman,serif" font-size="14.00">leaf 12: </text>
<text text-anchor="start" x="1430.96" y="-175.3" font-family="Times New Roman,serif" font-weight="bold" font-size="14.00">442597.500</text>
</g>
<!-- split11&#45;&gt;leaf12 -->
<g id="edge10" class="edge"><title>split11&#45;&gt;leaf12</title>
<path fill="none" stroke="black" d="M1288.98,-192.719C1309.68,-190.753 1333.7,-188.472 1356.57,-186.3"/>
<polygon fill="black" stroke="black" points="1357,-189.775 1366.63,-185.345 1356.34,-182.806 1357,-189.775"/>
<text text-anchor="middle" x="1338.67" y="-191.8" font-family="Times New Roman,serif" font-size="14.00">no</text>
</g>
<!-- leaf4 -->
<g id="node19" class="node"><title>leaf4</title>
<ellipse fill="none" stroke="black" cx="1019.79" cy="-158" rx="81.4863" ry="18"/>
<text text-anchor="start" x="965.292" y="-155.3" font-family="Times New Roman,serif" font-size="14.00">leaf 4: </text>
<text text-anchor="start" x="1002.29" y="-155.3" font-family="Times New Roman,serif" font-weight="bold" font-size="14.00">451550.000</text>
</g>
<!-- split9&#45;&gt;leaf4 -->
<g id="edge15" class="edge"><title>split9&#45;&gt;leaf4</title>
<path fill="none" stroke="black" d="M893.12,-158C904.643,-158 916.526,-158 928.176,-158"/>
<polygon fill="black" stroke="black" points="928.34,-161.5 938.34,-158 928.34,-154.5 928.34,-161.5"/>
<text text-anchor="middle" x="913.5" y="-161.8" font-family="Times New Roman,serif" font-size="14.00">yes</text>
</g>
<!-- leaf10 -->
<g id="node20" class="node"><title>leaf10</title>
<ellipse fill="none" stroke="black" cx="1019.79" cy="-118" rx="85.5853" ry="18"/>
<text text-anchor="start" x="961.792" y="-115.3" font-family="Times New Roman,serif" font-size="14.00">leaf 10: </text>
<text text-anchor="start" x="1005.79" y="-115.3" font-family="Times New Roman,serif" font-weight="bold" font-size="14.00">463000.000</text>
</g>
<!-- split9&#45;&gt;leaf10 -->
<g id="edge16" class="edge"><title>split9&#45;&gt;leaf10</title>
<path fill="none" stroke="black" d="M893.12,-142.076C910.612,-138.725 928.936,-135.214 946.014,-131.943"/>
<polygon fill="black" stroke="black" points="946.746,-135.366 955.909,-130.047 945.429,-128.491 946.746,-135.366"/>
<text text-anchor="middle" x="913.5" y="-142.8" font-family="Times New Roman,serif" font-size="14.00">no</text>
</g>
<!-- split5 -->
<g id="node22" class="node"><title>split5</title>
<polygon fill="none" stroke="black" points="684,-96 418,-96 418,-60 684,-60 684,-96"/>
<text text-anchor="start" x="426" y="-75.3" font-family="Times New Roman,serif" font-weight="bold" font-size="14.00">bath_bed_sum_sqft_living_rat</text>
<text text-anchor="start" x="611" y="-75.3" font-family="Times New Roman,serif" font-size="14.00"> ≤ </text>
<text text-anchor="start" x="627" y="-75.3" font-family="Times New Roman,serif" font-weight="bold" font-size="14.00">407.717</text>
</g>
<!-- split2&#45;&gt;split5 -->
<g id="edge28" class="edge"><title>split2&#45;&gt;split5</title>
<path fill="none" stroke="black" d="M377.116,-78C386.861,-78 397.004,-78 407.275,-78"/>
<polygon fill="black" stroke="black" points="407.578,-81.5001 417.578,-78 407.578,-74.5001 407.578,-81.5001"/>
<text text-anchor="middle" x="397.5" y="-81.8" font-family="Times New Roman,serif" font-size="14.00">yes</text>
</g>
<!-- leaf3 -->
<g id="node31" class="node"><title>leaf3</title>
<ellipse fill="none" stroke="black" cx="551" cy="-38" rx="81.4863" ry="18"/>
<text text-anchor="start" x="496.5" y="-35.3" font-family="Times New Roman,serif" font-size="14.00">leaf 3: </text>
<text text-anchor="start" x="533.5" y="-35.3" font-family="Times New Roman,serif" font-weight="bold" font-size="14.00">482600.000</text>
</g>
<!-- split2&#45;&gt;leaf3 -->
<g id="edge29" class="edge"><title>split2&#45;&gt;leaf3</title>
<path fill="none" stroke="black" d="M377.022,-63.769C380.731,-63.1647 384.403,-62.5724 388,-62 415.388,-57.641 445.423,-53.1195 472.112,-49.1923"/>
<polygon fill="black" stroke="black" points="472.779,-52.632 482.165,-47.7178 471.763,-45.7061 472.779,-52.632"/>
<text text-anchor="middle" x="397.5" y="-65.8" font-family="Times New Roman,serif" font-size="14.00">no</text>
</g>
<!-- split7 -->
<g id="node23" class="node"><title>split7</title>
<polygon fill="none" stroke="black" points="885,-96 733,-96 733,-60 885,-60 885,-96"/>
<text text-anchor="start" x="741" y="-75.3" font-family="Times New Roman,serif" font-weight="bold" font-size="14.00">yr_built_ago</text>
<text text-anchor="start" x="819" y="-75.3" font-family="Times New Roman,serif" font-size="14.00"> ≤ </text>
<text text-anchor="start" x="835" y="-75.3" font-family="Times New Roman,serif" font-weight="bold" font-size="14.00">26.103</text>
</g>
<!-- split5&#45;&gt;split7 -->
<g id="edge26" class="edge"><title>split5&#45;&gt;split7</title>
<path fill="none" stroke="black" d="M684.124,-78C697.21,-78 710.238,-78 722.66,-78"/>
<polygon fill="black" stroke="black" points="722.941,-81.5001 732.941,-78 722.941,-74.5001 722.941,-81.5001"/>
<text text-anchor="middle" x="704.5" y="-81.8" font-family="Times New Roman,serif" font-size="14.00">yes</text>
</g>
<!-- leaf6 -->
<g id="node30" class="node"><title>leaf6</title>
<ellipse fill="none" stroke="black" cx="809" cy="-38" rx="81.4863" ry="18"/>
<text text-anchor="start" x="754.5" y="-35.3" font-family="Times New Roman,serif" font-size="14.00">leaf 6: </text>
<text text-anchor="start" x="791.5" y="-35.3" font-family="Times New Roman,serif" font-weight="bold" font-size="14.00">464100.000</text>
</g>
<!-- split5&#45;&gt;leaf6 -->
<g id="edge27" class="edge"><title>split5&#45;&gt;leaf6</title>
<path fill="none" stroke="black" d="M667.269,-59.9893C689.18,-56.5656 711.595,-53.0633 731.909,-49.8893"/>
<polygon fill="black" stroke="black" points="732.673,-53.3124 742.013,-48.3105 731.592,-46.3963 732.673,-53.3124"/>
<text text-anchor="middle" x="704.5" y="-58.8" font-family="Times New Roman,serif" font-size="14.00">no</text>
</g>
<!-- leaf1 -->
<g id="node24" class="node"><title>leaf1</title>
<ellipse fill="none" stroke="black" cx="1019.79" cy="-78" rx="81.4863" ry="18"/>
<text text-anchor="start" x="965.292" y="-75.3" font-family="Times New Roman,serif" font-size="14.00">leaf 1: </text>
<text text-anchor="start" x="1002.29" y="-75.3" font-family="Times New Roman,serif" font-weight="bold" font-size="14.00">444100.000</text>
</g>
<!-- split7&#45;&gt;leaf1 -->
<g id="edge20" class="edge"><title>split7&#45;&gt;leaf1</title>
<path fill="none" stroke="black" d="M885.084,-78C899.007,-78 913.688,-78 928.02,-78"/>
<polygon fill="black" stroke="black" points="928.378,-81.5001 938.378,-78 928.378,-74.5001 928.378,-81.5001"/>
<text text-anchor="middle" x="913.5" y="-81.8" font-family="Times New Roman,serif" font-size="14.00">yes</text>
</g>
<!-- split13 -->
<g id="node25" class="node"><title>split13</title>
<polygon fill="none" stroke="black" points="1097.29,-56 942.292,-56 942.292,-20 1097.29,-20 1097.29,-56"/>
<text text-anchor="start" x="950.292" y="-35.3" font-family="Times New Roman,serif" font-weight="bold" font-size="14.00">sqft_living_rat</text>
<text text-anchor="start" x="1039.29" y="-35.3" font-family="Times New Roman,serif" font-size="14.00"> ≤ </text>
<text text-anchor="start" x="1055.29" y="-35.3" font-family="Times New Roman,serif" font-weight="bold" font-size="14.00">0.379</text>
</g>
<!-- split7&#45;&gt;split13 -->
<g id="edge25" class="edge"><title>split7&#45;&gt;split13</title>
<path fill="none" stroke="black" d="M885.084,-63.6156C900.333,-60.6943 916.489,-57.599 932.102,-54.608"/>
<polygon fill="black" stroke="black" points="933.105,-57.9795 942.268,-52.6604 931.788,-51.1046 933.105,-57.9795"/>
<text text-anchor="middle" x="913.5" y="-62.8" font-family="Times New Roman,serif" font-size="14.00">no</text>
</g>
<!-- split14 -->
<g id="node26" class="node"><title>split14</title>
<polygon fill="none" stroke="black" points="1288.88,-76 1175.88,-76 1175.88,-40 1288.88,-40 1288.88,-76"/>
<text text-anchor="start" x="1183.88" y="-55.3" font-family="Times New Roman,serif" font-weight="bold" font-size="14.00">long</text>
<text text-anchor="start" x="1210.88" y="-55.3" font-family="Times New Roman,serif" font-size="14.00"> ≤ </text>
<text text-anchor="start" x="1226.88" y="-55.3" font-family="Times New Roman,serif" font-weight="bold" font-size="14.00">&#45;122.222</text>
</g>
<!-- split13&#45;&gt;split14 -->
<g id="edge23" class="edge"><title>split13&#45;&gt;split14</title>
<path fill="none" stroke="black" d="M1097.41,-45.277C1119.75,-47.3983 1143.95,-49.6964 1165.55,-51.7484"/>
<polygon fill="black" stroke="black" points="1165.32,-55.2419 1175.6,-52.7031 1165.98,-48.2732 1165.32,-55.2419"/>
<text text-anchor="middle" x="1126.08" y="-51.8" font-family="Times New Roman,serif" font-size="14.00">yes</text>
</g>
<!-- leaf14 -->
<g id="node29" class="node"><title>leaf14</title>
<ellipse fill="none" stroke="black" cx="1232.38" cy="-18" rx="85.5853" ry="18"/>
<text text-anchor="start" x="1174.38" y="-15.3" font-family="Times New Roman,serif" font-size="14.00">leaf 14: </text>
<text text-anchor="start" x="1218.38" y="-15.3" font-family="Times New Roman,serif" font-weight="bold" font-size="14.00">477600.000</text>
</g>
<!-- split13&#45;&gt;leaf14 -->
<g id="edge24" class="edge"><title>split13&#45;&gt;leaf14</title>
<path fill="none" stroke="black" d="M1097.41,-30.723C1112.46,-29.2937 1128.36,-27.7841 1143.74,-26.3236"/>
<polygon fill="black" stroke="black" points="1144.13,-29.8021 1153.75,-25.3723 1143.47,-22.8335 1144.13,-29.8021"/>
<text text-anchor="middle" x="1126.08" y="-32.8" font-family="Times New Roman,serif" font-size="14.00">no</text>
</g>
<!-- leaf8 -->
<g id="node27" class="node"><title>leaf8</title>
<ellipse fill="none" stroke="black" cx="1444.96" cy="-78" rx="81.4863" ry="18"/>
<text text-anchor="start" x="1390.46" y="-75.3" font-family="Times New Roman,serif" font-size="14.00">leaf 8: </text>
<text text-anchor="start" x="1427.46" y="-75.3" font-family="Times New Roman,serif" font-weight="bold" font-size="14.00">446100.000</text>
</g>
<!-- split14&#45;&gt;leaf8 -->
<g id="edge21" class="edge"><title>split14&#45;&gt;leaf8</title>
<path fill="none" stroke="black" d="M1288.98,-63.2809C1310.63,-65.3366 1335.91,-67.7375 1359.69,-69.9966"/>
<polygon fill="black" stroke="black" points="1359.49,-73.4935 1369.78,-70.9547 1360.16,-66.5248 1359.49,-73.4935"/>
<text text-anchor="middle" x="1338.67" y="-71.8" font-family="Times New Roman,serif" font-size="14.00">yes</text>
</g>
<!-- leaf15 -->
<g id="node28" class="node"><title>leaf15</title>
<ellipse fill="none" stroke="black" cx="1444.96" cy="-38" rx="85.5853" ry="18"/>
<text text-anchor="start" x="1386.96" y="-35.3" font-family="Times New Roman,serif" font-size="14.00">leaf 15: </text>
<text text-anchor="start" x="1430.96" y="-35.3" font-family="Times New Roman,serif" font-weight="bold" font-size="14.00">456600.000</text>
</g>
<!-- split14&#45;&gt;leaf15 -->
<g id="edge22" class="edge"><title>split14&#45;&gt;leaf15</title>
<path fill="none" stroke="black" d="M1288.98,-52.7191C1309.68,-50.7532 1333.7,-48.4717 1356.57,-46.3003"/>
<polygon fill="black" stroke="black" points="1357,-49.7748 1366.63,-45.3449 1356.34,-42.8062 1357,-49.7748"/>
<text text-anchor="middle" x="1338.67" y="-51.8" font-family="Times New Roman,serif" font-size="14.00">no</text>
</g>
</g>
</svg>
